<svg xmlns="http://www.w3.org/2000/svg" xmlns:xlink="http://www.w3.org/1999/xlink" viewBox="0 0 48 48"><defs><style>.cls-1{fill:#3c5b9b;}.cls-2{fill:#fff;}.cls-3{opacity:0.4;fill:url(#linear-gradient);}</style><linearGradient id="linear-gradient" x1="24" y1="27.22" x2="24" gradientUnits="userSpaceOnUse"><stop offset="0" stop-color="#fff"/><stop offset="0.09" stop-color="#fff" stop-opacity="0.97"/><stop offset="0.22" stop-color="#fff" stop-opacity="0.88"/><stop offset="0.38" stop-color="#fff" stop-opacity="0.74"/><stop offset="0.57" stop-color="#fff" stop-opacity="0.54"/><stop offset="0.79" stop-color="#fff" stop-opacity="0.29"/><stop offset="1" stop-color="#fff" stop-opacity="0"/></linearGradient></defs><title>Asset 1</title><g id="Layer_2" data-name="Layer 2"><g id="Icons"><path class="cls-1" d="M48,24A24,24,0,1,1,24,0,24,24,0,0,1,48,24Z"/><path class="cls-2" d="M20,39h6V24h4.45L31,18H26.23V15.6a1.27,1.27,0,0,1,1.33-1.44h3.36V9L26.29,9C21.14,9,20,12.83,20,15.29V18H17v6h3Z"/><path class="cls-3" d="M24.06,0A24,24,0,0,0,.24,21.07c2,4.21,7.66,10.24,23.82,2.17,16.89-8.43,18.82-5.57,23.7-3A24,24,0,0,0,24.06,0Z"/></g></g></svg>