<svg xmlns="http://www.w3.org/2000/svg" xmlns:xlink="http://www.w3.org/1999/xlink" viewBox="0 0 48 48"><defs><style>.cls-1{fill:#517fa4;}.cls-2{fill:#fff;}.cls-3{opacity:0.4;fill:url(#linear-gradient);}</style><linearGradient id="linear-gradient" x1="24" y1="27.22" x2="24" gradientUnits="userSpaceOnUse"><stop offset="0" stop-color="#fff"/><stop offset="0.09" stop-color="#fff" stop-opacity="0.97"/><stop offset="0.22" stop-color="#fff" stop-opacity="0.88"/><stop offset="0.38" stop-color="#fff" stop-opacity="0.74"/><stop offset="0.57" stop-color="#fff" stop-opacity="0.54"/><stop offset="0.79" stop-color="#fff" stop-opacity="0.29"/><stop offset="1" stop-color="#fff" stop-opacity="0"/></linearGradient></defs><title>Asset 5</title><g id="Layer_2" data-name="Layer 2"><g id="Icons"><path class="cls-1" d="M48,24A24,24,0,1,1,24,0,24,24,0,0,1,48,24Z"/><path class="cls-2" d="M33.2,9H14.8A5.8,5.8,0,0,0,9,14.8V33.2A5.8,5.8,0,0,0,14.8,39H33.2A5.8,5.8,0,0,0,39,33.2V14.8A5.8,5.8,0,0,0,33.2,9Zm1.67,3.46h.66v5.08l-5.07,0,0-5.09ZM19.72,20.92a5.27,5.27,0,1,1-1,3.08A5.27,5.27,0,0,1,19.72,20.92ZM36.08,33.2a2.88,2.88,0,0,1-2.88,2.88H14.8a2.88,2.88,0,0,1-2.88-2.88V20.92H16.4A8.09,8.09,0,0,0,15.8,24a8.2,8.2,0,1,0,15.8-3.08h4.48Z"/><path class="cls-3" d="M24.06,0A24,24,0,0,0,.24,21.07c2,4.21,7.66,10.24,23.82,2.17,16.89-8.43,18.82-5.57,23.7-3A24,24,0,0,0,24.06,0Z"/></g></g></svg>