<svg xmlns="http://www.w3.org/2000/svg" xmlns:xlink="http://www.w3.org/1999/xlink" viewBox="0 0 48 48"><defs><style>.cls-1{fill:#cb2027;}.cls-2{fill:#fff;}.cls-3{opacity:0.4;fill:url(#linear-gradient);}</style><linearGradient id="linear-gradient" x1="24" y1="27.22" x2="24" gradientUnits="userSpaceOnUse"><stop offset="0" stop-color="#fff"/><stop offset="0.09" stop-color="#fff" stop-opacity="0.97"/><stop offset="0.22" stop-color="#fff" stop-opacity="0.88"/><stop offset="0.38" stop-color="#fff" stop-opacity="0.74"/><stop offset="0.57" stop-color="#fff" stop-opacity="0.54"/><stop offset="0.79" stop-color="#fff" stop-opacity="0.29"/><stop offset="1" stop-color="#fff" stop-opacity="0"/></linearGradient></defs><title>Asset 3</title><g id="Layer_2" data-name="Layer 2"><g id="Icons"><path class="cls-1" d="M48,24A24,24,0,1,1,24,0,24,24,0,0,1,48,24Z"/><path class="cls-2" d="M17.15,38.81a.24.24,0,0,0,.42.1,18.06,18.06,0,0,0,3.22-5.64C21,32.5,22,28.53,22,28.53a5.14,5.14,0,0,0,4.35,2.15c5.73,0,9.61-5.05,9.61-11.81C36,13.76,31.53,9,24.73,9,16.27,9,12,14.87,12,19.76c0,3,1.16,5.6,3.65,6.59a.62.62,0,0,0,.89-.43c.08-.31.27-1.07.36-1.39a.81.81,0,0,0-.25-1,4.86,4.86,0,0,1-1.18-3.38c0-4.35,3.37-8.25,8.77-8.25,4.78,0,7.41,2.83,7.41,6.6,0,5-2.28,9.17-5.65,9.17a2.69,2.69,0,0,1-2.81-3.32c.54-2.19,1.57-4.54,1.57-6.12a2.33,2.33,0,0,0-2.4-2.58c-1.9,0-3.43,1.9-3.43,4.46a6.42,6.42,0,0,0,.57,2.72l-2.29,9.39A18.77,18.77,0,0,0,17.15,38.81Z"/><path class="cls-3" d="M24.06,0A24,24,0,0,0,.24,21.07c2,4.21,7.66,10.24,23.82,2.17,16.89-8.43,18.82-5.57,23.7-3A24,24,0,0,0,24.06,0Z"/></g></g></svg>